<svg width="60" height="30" viewBox="0 0 60 30" fill="none" xmlns="http://www.w3.org/2000/svg">
<path d="M20.9001 18.4125C19.7196 20.446 17.5223 21.8192 15.0035 21.8192C11.2459 21.8192 8.18363 18.7631 8.18363 15C8.18363 11.2369 11.24 8.18076 15.0035 8.18076C17.5223 8.18076 19.7196 9.55396 20.9001 11.5875H29.6076C28.059 4.9552 22.104 0 15.0035 0C6.73432 0 0.0020752 6.72575 0.0020752 15C0.0020752 23.2743 6.72848 30 15.0035 30C22.104 30 28.059 25.0448 29.6076 18.4125H20.9001Z" fill="#4285F4"/>
<path d="M44.3238 10.915H29.3224V19.0958H44.3238V10.915Z" fill="#FBBC04"/>
<path d="M59.998 18.4126V27.277H54.5456V24.5482C54.5456 23.0406 53.3242 21.8193 51.8164 21.8193C50.3087 21.8193 49.0873 23.0406 49.0873 24.5482V27.277H43.6349V18.4126H59.998Z" fill="#34A853"/>
<path d="M59.998 10.915H43.6349V19.0958H59.998V10.915Z" fill="#188038"/>
<path d="M29.4315 10.915H20.4552V10.9326C21.3084 12.072 21.8168 13.4803 21.8168 15.0054C21.8168 16.5305 21.3026 17.9388 20.4552 19.0783V19.0958H29.4315C29.7997 17.7927 30.0042 16.4254 30.0042 15.0054C30.0042 13.5855 29.7997 12.2181 29.4315 10.915Z" fill="#EA4335"/>
</svg>
